<?xml version="1.0" standalone="no"?>
<!DOCTYPE svg PUBLIC "-//W3C//DTD SVG 20010904//EN"
 "http://www.w3.org/TR/2001/REC-SVG-20010904/DTD/svg10.dtd">
<svg version="1.0" xmlns="http://www.w3.org/2000/svg"
 width="1078.000000pt" height="769.000000pt" viewBox="0 0 1078.000000 769.000000"
 preserveAspectRatio="xMidYMid meet">
<metadata>
Created by potrace 1.15, written by Peter Selinger 2001-2017
</metadata>
<g transform="translate(0.000000,769.000000) scale(0.100000,-0.100000)"
fill="#000000" stroke="none">
<path d="M0 6459 c0 -678 3 -1229 7 -1225 3 3 12 1 20 -5 10 -9 19 -7 38 5 28
19 33 36 9 36 -8 0 -13 4 -9 10 3 5 13 6 21 3 11 -4 14 -14 10 -34 -4 -19 -1
-29 7 -30 6 -1 1 -4 -13 -8 -14 -4 -39 -4 -57 0 l-32 7 1 -149 c1 -114 4 -149
14 -149 18 0 16 -80 -2 -98 -20 -20 -17 -43 6 -49 11 -3 17 -9 14 -14 -3 -5 1
-9 8 -9 7 -1 1 -8 -14 -16 -24 -13 -28 -21 -28 -59 0 -25 5 -45 10 -45 7 0 7
-6 0 -19 -18 -34 -13 -71 10 -71 11 0 20 -6 20 -14 0 -8 -8 -13 -17 -12 -15 1
-19 -8 -21 -46 -3 -43 -1 -48 17 -48 12 0 21 -4 21 -10 0 -5 -9 -10 -20 -10
-12 0 -20 -7 -20 -17 0 -27 12 -39 52 -56 35 -15 52 -37 28 -37 -5 0 -7 -6 -4
-14 4 -9 -3 -14 -21 -13 -15 0 -32 -6 -38 -12 -9 -9 -8 -11 4 -6 10 4 22 -3
32 -19 18 -27 7 -45 -13 -21 -22 27 -42 18 -38 -17 2 -20 8 -32 16 -30 22 4
26 -29 7 -65 -15 -27 -16 -36 -6 -42 10 -6 10 -14 3 -28 -6 -11 -8 -29 -5 -41
3 -13 1 -22 -6 -22 -11 0 -11 -87 -3 -305 0 -5 -2 -46 -5 -89 l-5 -79 76 6 76
5 1 -31 c1 -18 3 -52 6 -77 2 -25 6 -75 8 -112 4 -77 -6 -92 -77 -112 -44 -14
-43 -15 23 -30 15 -3 29 -13 33 -21 7 -20 -18 -19 -49 1 -27 18 -31 13 -14
-17 7 -14 19 -19 42 -17 18 1 43 -4 55 -11 21 -11 23 -18 17 -49 -4 -21 -8
-38 -10 -40 -7 -7 -42 -10 -112 -11 l-73 -1 0 -49 0 -50 47 -3 48 -3 2 -50 c0
-27 -2 -56 -7 -64 -4 -8 -4 -26 -1 -40 18 -65 -26 -104 -68 -62 l-21 21 0
-195 0 -195 38 0 c39 0 62 -14 62 -37 0 -8 -12 -13 -27 -13 -20 0 -24 3 -14 9
17 11 5 31 -19 31 -22 0 -39 -22 -21 -28 9 -3 9 -7 1 -18 -17 -19 -3 -34 31
-34 16 0 29 -5 29 -11 0 -7 -15 -10 -40 -7 l-40 4 2 -370 3 -371 59 -13 c109
-24 176 -95 176 -185 0 -66 -46 -126 -157 -208 -82 -61 -84 -67 -81 -215 l3
-129 70 3 c39 1 76 -2 84 -7 12 -7 14 -53 12 -255 -1 -157 1 -246 8 -246 13 0
20 72 25 289 3 105 9 188 15 194 14 14 602 10 616 -4 12 -12 12 -15 18 -258 6
-242 1 -261 -71 -261 -26 0 -53 -4 -61 -9 -22 -14 -5 -41 27 -41 26 0 28 -3
24 -31 -4 -28 -7 -30 -41 -27 -33 3 -37 6 -46 43 -15 60 -18 62 -87 59 -35 -2
-83 -2 -108 -1 -146 6 -228 0 -272 -21 -30 -15 -69 -23 -123 -26 -44 -2 -83
-5 -87 -5 -5 -1 -8 -19 -8 -41 l0 -40 110 0 c102 0 110 1 110 19 0 28 15 34
62 26 28 -5 42 -13 45 -26 5 -18 18 -19 245 -19 l239 0 -12 21 c-16 31 9 53
49 44 28 -6 30 -9 21 -31 -5 -14 -9 -27 -9 -30 0 -2 50 -4 111 -4 106 0 111 1
106 20 -3 11 -1 23 4 26 5 3 9 14 9 25 0 12 7 19 19 19 25 0 35 -16 36 -55 l0
-30 596 -3 595 -2 10 41 c8 36 14 43 49 55 22 8 63 14 91 14 40 0 58 -6 92
-31 29 -21 42 -38 42 -55 l0 -24 395 0 395 0 0 45 c0 41 2 45 24 45 30 0 38
-11 38 -56 0 -34 1 -34 44 -34 44 0 57 13 34 36 -8 8 -6 15 4 23 24 20 59 -4
52 -35 l-6 -24 110 0 c109 0 110 0 110 24 0 13 3 38 6 55 l6 31 123 0 c68 0
130 -3 139 -6 12 -4 16 -20 16 -55 l0 -49 354 1 c343 0 354 1 359 19 7 28 67
28 74 0 5 -20 14 -20 1639 -20 1083 0 1634 3 1634 10 0 6 7 10 15 10 8 0 15
-4 15 -10 0 -5 23 -10 50 -10 l50 0 0 40 0 40 73 0 c39 0 82 3 94 6 19 5 22 1
25 -26 5 -56 35 -60 495 -59 337 0 404 3 414 15 8 10 9 36 5 86 -6 54 -4 73 6
79 7 5 86 9 176 9 l162 0 11 -28 c5 -15 20 -35 32 -44 30 -23 15 -33 -49 -32
-59 0 -58 1 -44 -26 15 -28 -12 -51 -53 -43 -37 7 -45 12 -61 45 -17 34 -50
30 -56 -6 -4 -22 -13 -32 -40 -42 -31 -11 -12 -13 148 -13 155 -1 182 1 182
14 0 24 107 24 126 -1 10 -12 57 -14 310 -11 165 3 319 8 343 12 31 5 42 4 37
-4 -5 -8 14 -11 63 -11 l71 0 0 655 -1 655 -29 15 c-41 21 -60 53 -60 101 0
43 31 87 71 99 18 6 19 21 19 341 0 288 -2 334 -15 334 -22 0 -48 46 -41 73 3
13 17 29 31 35 25 11 25 13 25 126 l0 114 -49 7 c-28 4 -55 13 -62 21 -10 12
-14 12 -25 -4 -11 -16 -27 -18 -131 -18 l-118 1 -3 108 -3 107 -52 0 c-29 0
-58 5 -65 12 -14 14 -16 104 -3 112 5 3 12 49 16 101 6 88 9 97 30 105 18 7
24 18 27 54 2 26 0 54 -4 64 -3 9 -7 67 -7 128 -1 108 -2 111 -26 122 -20 9
-25 19 -25 46 0 19 4 46 10 60 9 24 15 26 65 26 l55 0 1 -132 c1 -73 3 -140 4
-148 1 -8 3 -56 4 -106 l1 -91 33 -10 c31 -9 32 -11 29 -56 -3 -42 -1 -47 21
-52 14 -4 54 -4 89 -1 34 3 91 5 124 6 l61 0 2 673 c1 370 -1 680 -4 689 -9
24 -75 32 -116 15 -38 -16 -91 -16 -111 0 -24 18 -56 21 -78 6 -12 -8 -24 -12
-27 -9 -3 3 -14 1 -23 -4 -13 -7 -21 -5 -30 5 -7 8 -18 15 -25 15 -7 0 -18 6
-24 14 -16 20 27 27 218 39 31 2 35 -1 43 -30 5 -18 12 -33 16 -33 4 0 20 14
35 30 24 26 36 30 79 30 48 0 49 1 46 27 -2 19 -10 29 -23 31 -44 7 -50 12
-33 28 8 8 24 17 34 18 18 3 19 15 19 252 0 215 -2 249 -15 249 -8 0 -15 9
-15 20 0 16 -7 20 -30 20 -27 0 -30 -3 -26 -30 4 -41 8 -45 44 -45 24 0 28 -3
17 -10 -24 -16 -59 -11 -80 10 -26 26 -25 55 1 81 21 21 50 22 92 4 16 -7 17
53 17 1264 -1 1088 -3 1271 -15 1271 -21 0 -27 -17 -13 -39 7 -11 9 -24 5 -28
-10 -10 -41 10 -44 28 -1 8 -4 31 -8 51 l-6 38 -204 -2 c-185 -1 -234 -7 -190
-24 8 -4 21 -1 29 5 15 13 26 5 26 -20 0 -28 -28 -38 -61 -22 -24 12 -28 19
-23 39 l6 24 -1186 0 c-784 0 -1186 -3 -1186 -10 0 -5 5 -10 10 -10 6 0 10 -7
10 -16 0 -10 -7 -14 -22 -12 -13 2 -23 10 -23 18 0 10 -13 16 -41 18 l-41 3
-1 -40 c-2 -51 -14 -79 -46 -114 -23 -25 -31 -28 -83 -25 l-58 3 -3 50 c-1 28
2 56 6 63 11 17 80 33 110 25 25 -6 31 14 10 35 -14 14 -92 17 -83 3 3 -5 1
-12 -5 -16 -6 -3 -13 1 -16 9 -5 14 -80 16 -698 16 l-691 -1 1 -52 c0 -29 4
-61 9 -71 7 -16 5 -18 -9 -13 -29 11 -56 -10 -56 -43 0 -25 -4 -30 -23 -30
-13 0 -31 8 -40 18 -28 30 -49 103 -43 150 l5 42 -185 0 c-172 0 -184 -1 -184
-18 0 -29 9 -32 45 -15 30 14 34 14 61 -3 l28 -19 -33 -3 c-22 -2 -31 -8 -27
-17 11 -30 -72 -35 -98 -6 -13 14 -16 28 -11 50 l7 31 -296 0 c-163 0 -296 -3
-296 -7 0 -5 -11 -13 -25 -20 -21 -9 -29 -8 -50 9 -21 16 -35 19 -83 14 -31
-3 -82 -7 -112 -9 -30 -2 -64 -6 -75 -9 -11 -3 -25 2 -31 10 -6 9 -18 13 -27
9 -21 -8 -13 -59 15 -99 15 -22 28 -28 65 -30 40 -3 49 -7 64 -33 10 -16 18
-36 18 -44 1 -8 9 -23 18 -33 23 -25 9 -34 -59 -41 -55 -5 -59 -4 -79 24 -11
16 -26 29 -34 29 -16 0 -30 -33 -15 -38 7 -3 8 -21 4 -51 -6 -47 -6 -48 24
-54 25 -5 29 -10 25 -27 -8 -30 -23 -35 -39 -11 -8 12 -21 21 -28 21 -27 0
-66 -26 -67 -45 -3 -42 -18 63 -18 127 -1 67 -1 67 -28 65 -25 -2 -28 1 -28
32 0 38 -15 50 -35 26 -7 -8 -21 -15 -31 -15 -11 0 -19 -4 -19 -10 0 -5 -5
-10 -11 -10 -6 0 -8 9 -3 23 4 12 7 29 6 37 -1 8 -1 48 -2 88 l-1 72 -51 0
-50 0 4 -65 c2 -36 0 -65 -4 -65 -15 0 -70 63 -81 93 -4 10 -12 15 -18 12 -6
-4 -8 -13 -5 -21 3 -7 0 -16 -6 -20 -7 -5 -5 -11 6 -20 16 -12 17 -14 1 -38
-10 -15 -30 -28 -50 -32 -20 -3 -35 -13 -38 -24 -5 -18 -30 -23 -167 -33 -33
-2 -35 -4 -32 -34 6 -57 -5 -73 -47 -73 -21 0 -52 3 -69 6 -27 6 -29 9 -22 33
5 18 3 39 -6 60 -8 18 -11 38 -7 44 4 6 7 48 7 94 l1 83 -266 0 c-258 0 -267
-1 -272 -20 -4 -15 -14 -20 -42 -20 -32 0 -37 3 -32 20 5 19 0 20 -71 19 -43
-1 -69 -3 -59 -6 9 -2 17 -9 17 -14 0 -15 -28 -10 -38 6 -7 13 -24 15 -88 13
l-79 -3 -1 -52 c-1 -29 -7 -59 -13 -67 -7 -9 -14 -32 -14 -53 l-2 -38 -59 -9
c-72 -12 -89 -2 -96 50 -5 36 -8 39 -40 44 l-35 5 -3 63 -3 62 -473 0 -474 0
-4 -29 c-4 -28 -3 -29 61 -40 36 -6 95 -13 131 -14 61 -2 65 -4 74 -30 8 -22
7 -30 -4 -37 -8 -5 -82 -9 -164 -9 -161 -1 -163 -1 -195 -59 -18 -31 -29 2
-36 108 l-7 110 -754 0 -754 0 0 -1231z m5066 1124 c25 -26 34 -44 31 -60 -2
-13 2 -31 9 -40 25 -33 16 -50 -30 -63 -51 -14 -88 -11 -94 9 -3 10 2 12 24 8
56 -10 67 7 33 54 -22 32 -50 37 -69 14 -17 -21 -42 -19 -39 3 1 9 -1 25 -6
35 -10 24 8 42 60 61 22 8 41 15 43 15 2 1 19 -16 38 -36z m4398 11 c19 -7 21
-35 4 -52 -7 -7 -43 -12 -92 -12 -103 0 -126 -6 -126 -34 0 -42 15 -50 102
-56 56 -4 77 -9 65 -14 -26 -12 -247 0 -260 13 -13 13 -20 75 -12 109 5 19 12
22 48 22 24 0 52 7 63 15 20 15 175 22 208 9z m873 -32 c0 -9 2 -29 6 -44 7
-28 -12 -58 -37 -58 -8 0 -20 -7 -27 -16 -11 -14 -11 -18 1 -28 11 -8 15 -31
14 -81 0 -84 -9 -106 -31 -76 -22 32 -7 261 18 261 4 0 13 18 19 41 9 33 14
38 25 29 7 -6 13 -19 12 -28z m-9910 -18 c3 -9 16 -8 50 2 87 26 84 30 81
-108 -3 -121 -3 -121 -28 -124 -55 -6 -250 -5 -259 1 -6 3 -11 17 -11 31 0 13
-5 24 -11 24 -8 0 -8 5 1 15 7 9 10 27 7 44 -7 34 9 102 28 116 18 15 137 13
142 -1z m6137 -98 c16 -32 22 -36 45 -31 39 8 100 9 108 1 12 -12 -20 -27 -45
-21 -28 7 -62 -2 -62 -16 0 -6 7 -17 15 -26 12 -12 13 -18 4 -29 -17 -20 -36
-17 -42 7 -5 19 -11 21 -43 16 -46 -8 -70 4 -79 40 l-7 28 -16 -23 c-10 -13
-33 -25 -53 -28 -29 -5 -40 -2 -57 16 -19 20 -20 26 -8 54 12 29 16 31 69 34
35 2 57 -1 58 -8 1 -5 2 -16 3 -22 1 -9 13 -12 36 -10 45 5 48 9 16 23 -27 13
-35 44 -13 52 20 8 51 -17 71 -57z m-2174 -32 c-6 -14 -5 -26 0 -29 16 -10 30
5 30 31 0 24 2 24 47 19 66 -8 80 -22 52 -52 -13 -12 -32 -23 -44 -23 -24 0
-45 -17 -45 -37 0 -11 7 -10 35 1 33 14 35 14 35 -3 0 -27 -18 -31 -160 -31
-142 0 -163 -8 -133 -50 15 -21 15 -24 -7 -40 -42 -32 -17 -40 124 -40 l134 0
28 -35 c15 -19 35 -35 45 -35 35 0 49 -12 49 -42 0 -16 5 -38 10 -48 15 -28 0
-32 -106 -32 -58 1 -96 -3 -100 -10 -4 -6 -9 -45 -11 -87 -2 -42 -8 -93 -14
-113 -5 -21 -7 -48 -3 -62 3 -13 -1 -36 -9 -53 -8 -15 -13 -41 -10 -56 3 -17
1 -29 -8 -32 -8 -3 -132 -6 -277 -8 l-263 -2 -6 23 c-6 26 2 100 12 110 4 4
13 -1 20 -11 13 -18 14 -18 34 2 33 33 27 44 -19 38 -36 -5 -40 -3 -41 16 -4
56 4 163 13 174 14 18 21 140 8 148 -5 3 -10 17 -10 31 0 32 -28 43 -46 19 -9
-12 -10 -23 -4 -36 27 -50 2 -89 -67 -104 -47 -9 -46 -54 0 -46 23 4 -4 -25
-31 -35 -24 -7 -29 -13 -21 -21 9 -9 9 -19 1 -40 -6 -15 -13 -56 -14 -90 -2
-55 0 -65 20 -78 24 -18 29 -47 10 -63 -7 -5 -42 -14 -77 -20 l-63 -9 7 51 c3
28 6 74 6 102 0 51 0 52 34 58 26 5 35 12 35 26 0 13 -7 20 -20 20 -34 0 -51
40 -49 119 1 42 -3 77 -10 85 -8 9 -8 16 -2 20 5 4 17 32 26 63 16 53 16 59 1
85 -16 25 -15 28 3 38 11 5 26 10 34 10 8 0 20 14 26 30 5 17 17 30 25 30 24
0 19 17 -6 24 -30 8 -68 8 -68 0 0 -4 9 -15 21 -25 20 -18 20 -18 0 -28 -34
-19 -41 -13 -41 34 0 26 -5 45 -11 45 -6 0 -9 6 -6 13 2 8 26 12 69 12 57 0
64 -2 60 -17 -4 -15 3 -18 38 -18 37 0 41 -2 30 -15 -14 -17 -15 -17 23 -33
32 -14 27 -32 -9 -32 -19 0 -24 -5 -24 -24 0 -19 -9 -27 -41 -40 -32 -13 -39
-20 -30 -29 6 -6 11 -19 11 -29 0 -19 41 -35 59 -23 6 3 11 17 11 30 0 17 12
31 45 52 41 26 44 31 45 73 1 72 3 74 124 67 64 -4 107 -3 111 3 4 6 -9 10
-29 10 -30 0 -35 4 -41 30 -4 17 -4 44 0 60 l7 30 71 -1 c40 -1 83 -4 97 -8
14 -4 33 -3 43 3 14 9 21 7 35 -11 17 -22 33 -26 90 -24 28 1 32 4 32 29 0 42
12 47 37 16 16 -21 19 -33 13 -50z m-1854 37 c2 -30 19 -41 67 -41 l37 0 -16
-26 c-15 -22 -15 -27 -2 -40 8 -8 24 -16 36 -17 17 -1 21 -6 16 -22 -12 -39
-33 -62 -66 -71 -24 -7 -38 -20 -51 -47 l-17 -38 -113 3 -112 3 -3 29 c-2 16
2 32 10 37 7 5 61 9 119 9 83 0 108 3 112 14 7 16 0 143 -8 156 -3 4 -57 7
-121 6 -110 -2 -117 -3 -135 -26 -10 -14 -19 -41 -19 -60 -1 -31 -2 -32 -10
-12 -10 23 -13 25 -75 26 l-40 1 -3 67 -3 67 53 4 c29 2 118 3 198 3 l145 -1
1 -24z m-976 -91 c13 -20 12 -56 -1 -103 l-10 -38 -57 3 -57 3 0 48 0 48 -35
-5 c-26 -5 -41 -1 -59 14 -42 36 -11 47 122 46 66 -1 90 -5 97 -16z m7134 -56
c22 -8 22 -70 -1 -78 -15 -6 -220 -20 -271 -19 -23 1 -52 19 -52 34 0 21 35
39 74 39 27 0 48 6 56 15 9 11 34 15 95 15 46 0 90 -3 99 -6z m-840 -123 c3
-5 6 -37 7 -72 1 -35 6 -70 11 -76 16 -20 197 -18 204 2 9 24 64 18 106 -11
32 -23 37 -31 31 -53 -3 -14 -10 -31 -15 -37 -5 -8 -3 -14 7 -17 8 -4 12 -13
9 -21 -3 -7 5 -23 17 -35 l23 -21 -37 0 c-39 0 -38 -1 -41 64 -1 10 -11 22
-23 27 -15 6 -20 14 -16 28 6 23 -27 41 -76 41 -41 0 -56 -24 -56 -89 l0 -56
67 -3 c50 -2 68 -7 72 -19 8 -21 9 -21 -49 -23 -77 -3 -82 -1 -88 20 -6 23
-27 27 -27 5 0 -17 -2 -18 -24 -9 -23 9 -20 41 5 54 17 10 20 19 17 63 l-3 52
-40 -3 c-51 -4 -61 -18 -69 -95 -6 -57 -10 -64 -34 -73 -27 -11 -28 -11 -21
-80 4 -45 2 -73 -5 -80 -13 -14 -134 -36 -148 -28 -6 4 -7 21 -4 39 5 24 0 41
-19 69 -25 36 -26 78 -4 92 5 3 9 25 9 49 0 34 5 47 20 55 18 10 20 21 20 124
0 62 3 116 7 119 10 10 161 8 167 -2z m2514 1 c10 -7 11 -57 6 -238 -8 -309
-10 -343 -16 -350 -8 -7 -227 -11 -238 -4 -11 7 -32 171 -32 254 0 47 5 71 14
77 14 9 148 12 170 4 13 -5 17 -82 5 -101 -5 -9 -10 -82 -8 -141 1 -25 5 -33
20 -33 10 0 23 6 28 13 8 10 11 474 3 502 -7 25 20 35 48 17z m-2012 -10 c22
-15 31 -45 23 -80 -8 -38 -23 -52 -56 -52 -12 0 -30 -11 -41 -25 -22 -28 -34
-33 -26 -10 4 8 -1 27 -11 41 -12 19 -23 24 -43 22 -22 -2 -28 2 -30 20 -3 21
-1 23 31 17 32 -6 35 -5 40 22 5 23 13 31 44 40 49 14 56 14 69 5z m1669 -13
c4 -11 4 -35 1 -52 -3 -18 -2 -49 3 -70 5 -20 6 -39 1 -42 -11 -7 -4 -147 8
-154 6 -4 14 -45 17 -91 3 -46 10 -89 15 -94 15 -15 12 -43 -6 -50 -49 -19
-117 5 -98 35 4 7 7 131 6 276 l-1 263 24 0 c15 0 26 -7 30 -21z m219 15 c12
-5 16 -20 16 -59 0 -30 5 -66 10 -81 7 -16 7 -30 2 -33 -6 -3 -12 -15 -15 -26
-4 -18 -5 -18 -6 3 -1 25 -13 27 -114 22 l-59 -2 17 25 c9 15 13 32 9 39 -11
17 -5 89 8 105 11 13 103 18 132 7z m-1804 -227 c0 -34 -26 -82 -55 -101 -14
-9 -25 -23 -25 -32 0 -26 31 -63 71 -86 43 -24 42 -34 -8 -54 -18 -8 -31 -19
-28 -24 11 -18 -4 -10 -28 14 -13 12 -30 26 -38 29 -11 4 -12 7 -1 15 11 7 11
10 -2 15 -20 8 -21 51 -1 67 8 7 15 23 15 35 0 13 6 26 13 28 7 3 5 6 -5 6
-25 1 -23 21 2 21 28 0 63 38 57 60 -4 17 4 27 26 29 4 1 7 -10 7 -22z m1166
-15 c6 -4 13 -15 17 -24 6 -16 83 -58 106 -58 10 0 16 -31 11 -55 -1 -5 -3
-32 -4 -60 -1 -49 -2 -50 -38 -56 -44 -7 -68 -25 -68 -50 0 -24 -14 -27 -207
-34 -154 -5 -163 -5 -183 15 -26 26 -40 25 -47 -1 -4 -14 -12 -19 -27 -17 -20
3 -21 10 -24 101 l-3 97 42 0 42 0 -7 -54 c-5 -44 -3 -55 10 -60 8 -3 103 -3
209 1 l194 6 0 77 c0 42 -5 83 -9 91 -7 11 -30 13 -97 12 -117 -3 -153 3 -153
26 0 30 22 40 95 44 39 1 84 4 100 5 17 1 35 -2 41 -6z m-791 -54 c17 -6 34
-15 40 -19 11 -11 9 -96 -4 -130 -5 -15 -7 -44 -4 -66 5 -37 3 -40 -28 -54
-23 -9 -60 -13 -110 -11 -44 2 -86 -1 -98 -7 -22 -12 -20 -17 -37 67 -3 15
-17 44 -31 65 -14 20 -23 40 -19 44 3 4 41 1 82 -6 54 -9 79 -10 87 -2 6 6 10
40 9 77 -1 36 0 70 4 75 3 5 22 2 42 -7 20 -9 51 -21 67 -26z m-144 0 c15 -27
13 -76 -3 -96 -20 -23 -147 5 -175 40 -12 14 -11 47 1 66 5 8 34 12 86 12 72
0 80 -2 91 -22z m-7291 -49 c0 -28 68 -26 104 2 15 12 28 20 30 18 2 -2 0 -26
-3 -54 -5 -40 -11 -52 -31 -62 -52 -27 -150 -11 -177 27 -8 11 -22 20 -32 20
-10 0 -26 9 -35 19 -17 19 -17 20 21 27 21 4 46 12 56 19 25 17 67 7 67 -16z
m-270 -143 c0 -14 -4 -28 -10 -31 -5 -3 -10 -19 -10 -35 0 -33 -29 -55 -61
-47 -10 3 -19 1 -19 -4 0 -5 -34 -9 -75 -9 -73 0 -74 1 -66 22 8 23 121 88
153 88 9 0 20 9 23 20 4 14 15 20 36 20 24 0 29 -4 29 -24z m7008 -160 c21
-18 58 -22 64 -5 2 6 14 5 33 -5 24 -13 26 -16 12 -22 -24 -9 -24 -84 0 -84
12 0 14 -3 6 -11 -8 -8 -17 -8 -32 0 -16 9 -21 21 -21 52 0 49 -19 59 -56 30
-15 -12 -44 -24 -66 -27 -32 -6 -38 -10 -38 -30 0 -17 -6 -24 -20 -24 -18 0
-20 7 -20 69 0 46 4 71 13 75 23 11 107 -1 125 -18z m-255 -18 c34 -45 6 -105
-54 -114 -29 -5 -40 -2 -58 17 -25 27 -28 75 -5 107 23 33 89 28 117 -10z
m-1993 -148 c0 -5 -4 -10 -10 -10 -5 0 -10 -8 -10 -18 0 -11 -9 -27 -20 -37
-34 -30 -24 -42 40 -49 48 -6 60 -11 60 -24 0 -10 -5 -23 -10 -28 -16 -16 52
-76 92 -80 33 -4 62 -29 52 -45 -3 -5 -19 -9 -35 -9 -17 0 -32 -6 -35 -15 -9
-22 -58 -18 -79 5 -11 12 -31 20 -50 20 -20 0 -39 8 -51 21 -18 20 -18 21 1
35 10 8 24 14 31 14 21 0 3 41 -22 50 -16 6 -22 15 -18 25 8 19 -10 19 -30 0
-20 -21 -35 -19 -45 7 l-8 21 -21 -21 c-38 -38 -51 -27 -32 24 7 18 7 30 -1
40 -6 7 -9 25 -7 41 3 28 4 28 83 34 44 3 90 6 103 7 12 1 22 -2 22 -8z m831
-7 c11 -13 14 -71 13 -279 0 -145 -3 -266 -6 -269 -12 -13 -152 5 -168 21 -7
7 -10 49 -8 105 l3 93 40 12 c43 12 55 40 23 55 -56 28 -53 19 -51 139 1 62 4
118 6 124 3 8 30 13 70 14 49 2 68 -2 78 -15z m-2467 -4 c3 -3 7 -21 8 -39 3
-33 1 -35 -32 -40 -40 -6 -49 -33 -12 -38 36 -5 47 -47 22 -82 -11 -15 -20
-40 -20 -54 0 -21 6 -28 30 -32 48 -10 35 -24 -16 -17 -41 5 -46 4 -43 -12 2
-10 13 -23 24 -29 11 -6 22 -12 25 -14 2 -2 5 -41 6 -88 1 -79 -1 -87 -23
-101 -12 -8 -23 -22 -23 -30 0 -11 -7 -13 -30 -8 -46 10 -71 -2 -64 -31 6 -24
5 -24 -64 -24 -69 0 -70 0 -83 -31 l-13 -32 -24 29 c-14 15 -30 29 -36 30 -6
1 -19 5 -28 9 -11 4 -18 3 -18 -4 0 -6 -7 -11 -15 -11 -8 0 -15 4 -15 9 0 5
-3 16 -6 25 -4 11 0 16 14 16 27 0 44 24 40 57 -2 22 -8 28 -28 28 -24 0 -25
2 -26 80 -3 234 -3 299 2 307 3 4 16 8 30 8 33 0 29 34 -4 38 -18 3 -22 10
-22 42 0 32 4 39 23 42 37 5 415 3 421 -3z m-1938 -14 c18 -15 18 -16 -11 -42
l-30 -26 27 5 c37 7 51 -12 55 -74 2 -28 7 -56 13 -63 14 -17 2 -25 -42 -25
-28 0 -40 5 -44 18 -3 9 -10 27 -16 38 -8 18 -7 41 5 91 1 4 -16 7 -38 7 -39
1 -40 2 -40 36 0 34 1 35 45 41 25 3 48 7 51 7 3 1 14 -5 25 -13z m-441 -9
c49 -17 55 -42 24 -92 -12 -20 -25 -50 -28 -68 -5 -24 -12 -32 -34 -34 -15 -2
-27 0 -28 5 -1 4 -3 30 -5 57 -5 57 -8 63 -27 47 -8 -6 -22 -8 -31 -5 -14 5
-17 1 -14 -21 2 -16 -2 -30 -10 -32 -10 -4 -12 10 -10 63 2 38 7 75 11 82 11
16 101 15 152 -2z m-1030 -10 c50 -36 -26 -76 -145 -76 -85 0 -85 0 -71 -50 4
-14 4 -35 0 -47 -5 -14 -4 -23 4 -27 8 -3 7 -9 -5 -19 -23 -18 -23 -29 2 -50
20 -17 28 -57 11 -57 -5 0 -14 7 -21 15 -14 17 -40 20 -40 6 0 -5 9 -13 20
-16 30 -9 24 -25 -8 -25 -52 0 -65 27 -67 146 -2 93 -5 107 -24 125 -25 24
-27 64 -3 78 27 16 324 14 347 -3z m3703 -51 c13 -1 28 -7 33 -12 15 -15 14
-284 -1 -293 -15 -9 -217 -6 -227 3 -14 14 -10 69 7 90 15 19 17 30 8 75 -5
29 -8 70 -6 90 3 36 5 37 48 43 25 4 51 2 57 -3 9 -7 15 -5 19 6 4 11 13 15
23 11 9 -4 26 -8 39 -10z m2421 -61 c37 -54 41 -100 10 -109 -28 -9 -105 3
-118 19 -12 15 -17 108 -7 124 4 7 25 12 46 12 35 0 42 -5 69 -46z m344 -4 c5
-19 13 -39 18 -44 5 -6 9 -18 9 -28 0 -16 -9 -18 -69 -18 -78 0 -88 10 -72 67
5 17 7 34 4 37 -14 14 14 27 55 24 43 -3 46 -5 55 -38z m587 -6 c6 -14 13 -92
16 -173 l6 -148 -23 -6 c-61 -17 -86 -1 -88 53 -1 43 -2 70 -1 83 1 6 0 43 -2
80 -3 61 -1 69 19 83 13 8 23 23 23 34 0 30 38 26 50 -6z m1889 -51 c-9 -2
-23 -19 -32 -38 -14 -29 -22 -35 -47 -35 -16 0 -30 -4 -30 -9 0 -17 64 -16 95
1 17 9 59 20 95 23 l65 6 -36 -23 c-20 -13 -34 -29 -32 -35 7 -21 -25 -26 -73
-13 -30 9 -48 10 -52 3 -4 -5 -24 -8 -44 -5 -33 4 -38 8 -39 31 -1 14 -2 43
-3 64 l-3 37 76 -1 c42 -1 69 -3 60 -6z m-5025 -52 c10 -11 18 -30 17 -43 -2
-80 -8 -135 -14 -145 -11 -17 -62 -17 -75 0 -8 9 -17 150 -13 200 2 16 68 6
85 -12z m-3130 -211 c4 -4 22 -4 40 2 38 12 227 11 240 -2 9 -9 15 -239 8
-290 -3 -23 -8 -25 -60 -27 -71 -4 -95 3 -84 24 15 26 2 61 -24 67 -42 11 -61
-18 -29 -44 24 -20 17 -30 -21 -30 -19 0 -42 -7 -51 -15 -8 -8 -19 -13 -24
-10 -5 3 -18 1 -29 -5 -28 -15 -70 -2 -70 21 0 14 7 19 25 19 16 0 25 6 25 15
0 17 38 35 56 28 7 -2 15 0 18 5 8 13 -21 23 -47 17 -12 -3 -31 1 -42 9 -17
12 -23 12 -47 0 -32 -17 -35 -29 -10 -43 9 -6 13 -10 7 -11 -27 0 -38 22 -43
82 -2 34 -7 68 -12 73 -11 14 -7 102 5 114 19 19 148 20 169 1z m1142 -36 c6
-23 10 -24 93 -24 l86 0 15 -33 c13 -28 21 -33 64 -37 56 -6 71 -25 31 -40
-14 -5 -23 -15 -20 -21 4 -5 0 -18 -9 -28 -16 -17 -15 -19 9 -25 18 -5 25 -13
25 -31 0 -31 -31 -34 -59 -6 -16 16 -29 18 -78 14 -54 -5 -59 -8 -75 -40 -10
-18 -18 -47 -18 -62 0 -23 -6 -31 -28 -39 -50 -17 -99 20 -81 63 14 36 10 55
-11 55 -19 0 -25 -13 -22 -51 1 -12 -10 -18 -36 -22 -20 -3 -46 -8 -57 -12
-11 -4 -1 7 22 25 41 33 47 50 17 50 -9 0 -21 6 -28 13 -11 10 -60 13 -213 11
-182 -3 -202 -1 -231 16 -31 19 -32 22 -32 87 0 38 4 74 9 82 7 11 50 15 208
17 109 2 224 3 257 3 56 0 58 1 53 22 -9 34 6 45 57 41 39 -3 47 -8 52 -28z
m3238 -49 c9 -13 16 -31 16 -40 0 -29 19 -15 22 18 3 31 4 32 53 32 47 0 50
-1 59 -32 8 -29 13 -33 42 -33 35 0 44 -16 22 -38 -15 -15 -70 -16 -86 0 -7 7
-54 12 -124 13 l-113 1 -3 44 c-4 50 6 60 59 60 28 0 41 -6 53 -25z m4428 -9
c21 -2 40 0 43 5 3 4 12 6 19 3 8 -3 35 -8 60 -12 26 -4 45 -11 44 -17 -4 -12
-28 -16 -28 -4 0 5 -12 9 -26 9 -22 0 -25 -2 -14 -15 7 -8 21 -15 31 -15 16 0
18 -5 13 -26 -5 -18 -3 -25 3 -21 6 4 17 0 24 -9 10 -13 10 -17 -2 -24 -9 -7
-15 -5 -17 5 -4 17 -18 20 -27 5 -3 -5 -1 -10 4 -10 6 0 11 -3 11 -7 0 -5 -62
-8 -138 -8 l-137 0 -3 64 c-5 97 -14 92 140 77z m-664 -6 c52 1 67 -11 35 -29
-10 -5 -16 -11 -13 -13 3 -2 16 -11 30 -20 29 -18 36 -58 20 -118 -8 -31 -16
-39 -37 -42 -34 -4 -42 -37 -38 -146 l3 -77 89 0 c48 -1 100 -4 116 -9 26 -8
27 -7 27 33 l0 41 70 0 c65 0 71 2 82 25 6 14 16 26 22 27 6 0 16 2 21 3 6 2
16 3 23 4 6 0 12 10 12 21 0 25 12 25 34 1 21 -23 14 -57 -13 -66 -19 -6 -36
-60 -32 -101 4 -41 -45 -57 -149 -48 -62 6 -70 9 -71 28 -1 12 -5 3 -10 -19
-5 -21 -7 -45 -5 -51 5 -12 -13 -15 -149 -30 -27 -3 -75 -1 -105 3 l-55 8 -2
72 c-1 40 -7 108 -13 150 -11 79 -11 84 -6 138 2 17 4 35 5 42 0 6 18 13 39
15 36 3 37 4 40 48 2 24 8 50 13 56 16 20 -7 26 -51 14 -45 -12 -60 -7 -60 19
0 26 10 32 44 26 17 -4 55 -6 84 -5z m-2695 -57 c-4 -32 -7 -77 -6 -100 2 -41
1 -42 -35 -48 -56 -10 -63 -13 -69 -35 -8 -32 -23 -23 -23 14 0 29 -6 38 -37
57 l-38 24 32 3 c23 2 30 7 26 18 -6 17 18 19 34 3 15 -15 32 -3 28 19 -1 9 3
24 11 32 8 10 10 21 4 30 -7 12 -28 15 -90 13 -64 -2 -80 1 -80 12 0 12 22 15
126 15 l125 0 -8 -57z m3604 -45 c17 -30 18 -38 7 -38 -23 0 -16 -17 9 -24 12
-3 24 -13 25 -23 0 -10 5 -43 10 -73 12 -74 7 -267 -7 -284 -7 -8 -25 -16 -42
-18 -24 -4 -30 -1 -34 16 -11 47 -13 143 -4 179 9 32 7 42 -7 58 -9 10 -21 16
-25 13 -5 -3 -9 2 -9 10 0 10 6 13 15 10 11 -5 15 1 15 18 0 14 -3 28 -6 31
-9 9 -44 -11 -44 -26 0 -7 -14 -20 -30 -29 -23 -13 -30 -24 -30 -47 0 -38 15
-48 32 -21 7 11 16 20 20 20 15 0 8 -41 -7 -46 -8 -4 -15 -12 -15 -19 0 -7 -7
-18 -15 -25 -9 -7 -15 -29 -15 -51 0 -26 -5 -39 -13 -39 -16 0 -37 42 -37 73
0 13 -5 28 -11 34 -9 9 -8 16 5 28 19 19 19 25 6 60 -9 23 -15 26 -50 24 -23
-2 -45 2 -52 9 -11 11 -10 12 5 6 9 -3 24 -1 32 6 8 7 26 10 39 6 32 -8 41 18
13 38 -18 12 -19 17 -8 25 8 5 29 7 48 4 28 -5 32 -3 27 11 -5 13 2 16 46 16
48 0 88 19 73 34 -11 10 -8 73 3 73 6 0 20 -18 31 -39z m-6986 -9 c5 -8 9 -40
9 -71 l0 -57 -47 -7 c-65 -10 -78 1 -80 71 -1 34 3 65 9 73 15 18 96 11 109
-9z m-2734 -59 c7 -26 59 -56 66 -37 3 9 9 9 31 -1 23 -10 30 -10 44 4 13 14
29 15 96 10 45 -4 97 -10 116 -15 35 -7 35 -8 32 -54 -3 -35 0 -48 11 -53 12
-4 15 -26 15 -104 l1 -99 -47 6 c-32 3 -60 0 -86 -11 -46 -19 -92 -20 -125 -2
-14 8 -30 12 -37 9 -7 -2 -26 3 -43 11 -36 19 -51 20 -51 4 0 -27 -43 -58 -82
-58 l-38 0 -2 160 c-1 88 -2 170 -2 183 -1 17 5 23 27 25 15 2 27 9 27 17 0
12 14 22 33 24 5 1 11 -8 14 -19z m4383 -7 c3 -3 6 -14 7 -26 0 -12 4 -32 8
-44 6 -19 3 -23 -16 -24 -53 -3 -130 1 -140 7 -13 8 -1 -65 14 -83 5 -7 30
-13 55 -13 35 0 50 5 68 25 26 28 60 32 91 10 19 -13 20 -21 16 -92 -4 -51
-10 -81 -19 -86 -18 -10 -18 -27 0 -27 13 0 26 -20 26 -40 0 -5 -7 -16 -16
-24 -12 -13 -43 -16 -177 -15 -157 1 -214 8 -189 23 6 3 9 13 6 21 -8 20 -24
9 -24 -16 0 -13 -7 -19 -22 -20 -13 -1 -48 -3 -78 -5 -82 -6 -100 0 -100 37 0
17 10 49 22 71 19 34 21 43 10 71 -10 25 -9 34 1 45 25 24 47 4 47 -43 0 -46
10 -55 59 -55 16 0 39 -10 52 -22 24 -23 35 -24 147 -19 8 1 12 17 12 46 0 41
-2 45 -24 45 -14 0 -28 -4 -31 -10 -3 -5 -12 -10 -18 -9 -9 0 -9 2 1 6 25 10
12 25 -18 20 -16 -4 -30 -3 -31 1 0 4 -2 18 -3 31 -3 22 -24 45 -49 54 -11 3
-13 54 -2 65 3 4 32 7 63 7 l57 0 5 45 c5 45 5 45 50 51 44 5 130 0 140 -8z
m-1407 1 c31 -5 47 -12 50 -24 7 -27 -12 -50 -41 -50 -15 0 -34 -5 -42 -10
-11 -7 -4 -10 26 -10 43 0 70 -19 61 -42 -2 -7 2 -29 10 -48 9 -22 13 -61 11
-108 -3 -66 -5 -73 -26 -78 -12 -4 -37 -4 -55 0 -17 3 -58 2 -89 -3 l-57 -8 3
176 c2 97 7 184 11 194 8 19 54 22 138 11z m-2205 -244 c4 -146 9 -140 -102
-140 -52 0 -100 2 -108 5 -10 4 -12 29 -10 108 2 56 5 108 7 115 4 9 31 12
107 10 l103 -3 3 -95z m4796 83 c18 -63 18 -93 -3 -126 -26 -43 -26 -44 4 -51
20 -5 25 -13 25 -36 0 -26 -4 -30 -27 -31 -66 -4 -162 -1 -171 5 -7 4 -9 31
-6 69 6 85 6 88 -2 119 -5 23 -2 29 17 36 14 5 34 5 51 -2 23 -8 32 -7 55 11
34 27 50 28 57 6z m-3806 -28 c3 -22 -3 -35 -22 -50 -21 -17 -26 -30 -28 -74
-3 -60 -17 -73 -70 -67 -18 2 -41 4 -50 5 -16 1 -18 11 -17 74 2 114 8 131 49
138 19 4 58 6 85 5 48 -1 50 -2 53 -31z m965 28 c15 -4 17 -17 17 -94 0 -85
-1 -90 -24 -101 -35 -15 -44 -42 -12 -34 16 4 32 -1 47 -13 l24 -19 -28 -11
c-32 -13 -87 -14 -177 -4 -59 6 -63 8 -76 40 -12 27 -20 33 -43 33 -65 0 -69
12 -55 149 l7 61 151 -1 c83 -1 159 -4 169 -6z m-634 -67 c9 -10 9 -16 1 -21
-7 -4 -8 -11 -1 -18 5 -7 9 -36 8 -64 -2 -49 -4 -54 -31 -63 -32 -11 -41 -5
-52 38 -6 22 -7 22 -25 6 -13 -12 -28 -15 -53 -10 -44 8 -56 23 -59 77 l-2 44
84 0 c59 0 86 4 88 13 6 16 28 15 42 -2z m7429 -252 c18 -21 22 -33 17 -58
-11 -48 -29 -61 -89 -61 -63 0 -96 23 -96 66 0 42 10 60 44 75 43 20 96 10
124 -22z m-303 12 c12 -9 16 -20 12 -36 -3 -12 0 -31 6 -41 19 -30 -3 -53 -52
-57 -23 -2 -48 2 -55 7 -20 17 -13 111 9 127 24 18 56 18 80 0z m-1040 -11
c95 -46 48 -137 -61 -120 -35 5 -44 11 -55 37 -12 29 -11 32 24 64 42 39 47
40 92 19z m-2256 -33 c24 -47 44 -65 68 -60 13 2 17 11 15 33 -4 26 -2 28 12
16 9 -7 16 -20 16 -27 0 -22 40 -16 62 9 l20 22 -5 -22 c-6 -26 9 -33 66 -33
56 0 71 11 63 45 -9 37 9 55 54 55 44 0 63 -18 55 -53 -9 -33 20 -49 78 -45
42 3 42 3 47 48 l5 45 62 3 c54 3 63 0 77 -19 14 -21 14 -24 -1 -41 -9 -10
-32 -19 -52 -19 -27 -1 -21 -4 27 -12 71 -11 96 -1 76 31 -23 36 18 60 46 27
7 -9 8 -15 2 -15 -16 0 -24 -33 -10 -42 27 -17 57 -8 72 21 18 34 46 43 87 29
24 -8 29 -15 28 -41 -3 -86 15 -417 23 -417 4 0 8 -9 8 -20 0 -11 -4 -20 -8
-20 -12 0 -24 -299 -16 -377 l7 -63 99 0 c64 0 97 4 93 10 -4 6 8 10 29 10 19
0 38 -4 41 -10 4 -6 84 -10 208 -10 191 0 203 1 215 20 7 12 8 20 2 20 -15 0
-12 30 3 30 6 1 2 9 -10 19 -19 16 -20 21 -9 30 17 14 66 -2 66 -21 0 -9 3 -8
10 2 12 19 167 27 199 11 20 -11 20 -14 6 -34 -8 -12 -15 -34 -15 -49 0 -28 1
-28 65 -28 77 0 81 -5 84 -105 1 -38 9 -144 17 -235 12 -140 20 -408 12 -411
-10 -4 -263 -20 -308 -20 -398 7 -1030 11 -1046 7 -19 -5 -25 -31 -16 -67 1
-3 39 -9 85 -11 132 -9 215 -61 246 -156 12 -35 12 -49 1 -84 -15 -47 -77
-114 -149 -163 -24 -17 -60 -52 -78 -80 -39 -57 -53 -66 -53 -36 0 27 -39 68
-50 52 -5 -9 -6 -356 -1 -403 1 -3 30 -10 66 -13 36 -4 63 -10 60 -13 -6 -6
-14 -7 -97 -10 -35 -2 -38 -4 -38 -31 0 -18 -6 -31 -17 -35 -25 -10 -1883 -7
-1900 3 -12 6 -14 112 -14 760 l1 752 -30 25 c-42 36 -42 83 0 116 l31 24 -3
103 -3 103 -52 2 c-40 1 -58 7 -78 26 -59 56 -1 145 90 138 l40 -3 3 315 c1
173 6 318 10 322 5 5 253 9 551 10 l543 1 26 48 c33 60 55 62 81 11z m-6588
-148 c10 -12 10 -20 0 -35 -10 -17 -7 -27 24 -70 27 -36 33 -49 21 -49 -9 0
-16 7 -16 15 0 20 -39 20 -46 0 -4 -8 -2 -21 4 -28 7 -8 6 -18 -3 -31 -20 -27
-65 -14 -65 19 0 14 -5 25 -11 25 -6 0 -8 9 -4 20 11 34 -20 69 -65 76 -47 8
-53 14 -44 49 6 25 8 25 99 25 72 0 95 -3 106 -16z m383 -9 c21 -22 23 -34 22
-98 -2 -40 -7 -80 -12 -89 -14 -26 -5 -108 14 -115 9 -4 33 -23 54 -44 36 -35
38 -39 38 -103 0 -63 -1 -66 -24 -66 -26 0 -42 35 -25 56 13 16 1 80 -18 96
-12 10 -18 9 -29 -7 -8 -10 -14 -30 -15 -44 0 -14 -3 -20 -6 -13 -8 20 -31 14
-35 -10 -2 -18 -10 -23 -33 -23 -27 0 -30 3 -33 36 -2 30 2 39 23 53 14 9 35
16 47 14 26 -4 33 12 15 36 -9 12 -26 18 -52 18 -21 0 -49 4 -62 9 -29 11 -30
39 -2 39 11 0 18 4 14 9 -3 5 -1 12 3 15 5 3 10 41 11 85 2 70 0 81 -18 90
-11 6 -23 20 -26 31 -11 34 12 50 72 50 45 0 58 -4 77 -25z m1692 10 c18 -14
17 -14 -13 -15 -21 0 -36 -7 -42 -18 -11 -21 3 -42 29 -42 27 0 60 -30 60 -56
0 -19 -5 -24 -25 -24 -18 0 -25 -5 -25 -19 0 -13 -10 -20 -36 -24 -50 -8 -61
-1 -56 33 3 20 0 30 -9 30 -8 0 -5 6 6 14 18 13 22 30 24 104 1 29 4 32 34 32
18 0 42 -7 53 -15z m5672 -97 c7 -7 12 -19 12 -27 0 -9 6 -28 14 -42 8 -15 10
-32 5 -40 -4 -7 -6 -16 -3 -21 8 -12 -29 -26 -77 -29 -62 -4 -70 3 -65 61 8
82 15 98 44 103 50 8 58 7 70 -5z m-3520 -4 c20 -6 22 -12 22 -80 0 -47 -4
-76 -12 -81 -7 -4 -49 -8 -93 -9 -105 -2 -112 4 -105 93 l5 68 64 2 c35 1 66
5 69 8 7 7 21 6 50 -1z m883 -4 c21 0 36 -5 37 -12 0 -7 3 -24 6 -38 4 -15 -2
-42 -14 -68 -12 -24 -19 -51 -18 -60 2 -13 -6 -18 -37 -20 -23 -2 -49 -12 -63
-24 -18 -18 -40 -23 -125 -29 -104 -7 -117 -6 -117 12 0 6 5 7 10 4 25 -16 40
18 40 88 l0 70 48 -9 c55 -9 190 -14 214 -8 34 10 7 34 -37 34 -49 0 -62 16
-38 50 11 15 22 20 37 16 11 -3 37 -6 57 -6z m2873 -27 c4 -3 5 -18 2 -34 -5
-27 -3 -29 23 -29 33 0 43 -17 34 -61 -6 -33 -35 -51 -104 -64 -49 -9 -64 11
-65 89 -1 34 -3 67 -5 75 -8 31 74 48 115 24z m-4159 -16 c3 -12 5 -52 3 -87
l-3 -65 -47 -5 c-27 -3 -53 -11 -60 -18 -12 -12 -78 -17 -78 -6 0 3 7 12 15
20 8 8 12 20 10 27 -10 24 -12 122 -4 138 7 13 25 17 84 18 70 1 75 0 80 -22z
m403 -183 c21 -4 22 -9 22 -87 0 -45 -4 -87 -8 -93 -8 -13 -106 -24 -145 -17
-18 4 -27 12 -27 25 0 11 -7 26 -15 35 -12 11 -15 31 -13 72 l3 56 60 5 c33 3
69 6 80 7 11 1 30 -1 43 -3z m-1835 -54 c6 -17 21 -33 32 -36 39 -12 47 -25
26 -41 -11 -7 -21 -26 -23 -41 -3 -23 -8 -27 -40 -30 -20 -2 -46 2 -58 8 -14
8 -26 8 -40 0 -17 -9 -22 -7 -29 13 -7 17 -20 26 -45 31 -20 4 -36 11 -36 15
0 8 80 21 134 21 16 0 37 8 46 17 15 17 15 19 -8 30 -13 7 -33 13 -43 13 -21
0 -26 16 -6 23 6 3 27 6 45 6 29 1 35 -4 45 -29z m-374 -39 c18 -12 6 -81 -15
-81 -8 0 -22 -9 -31 -20 -10 -11 -27 -20 -38 -20 -12 0 -26 -5 -32 -11 -8 -8
-17 -7 -32 3 -16 10 -21 23 -21 58 0 45 0 45 37 48 20 1 39 6 43 11 11 17 68
25 89 12z m1483 -33 c9 -7 18 -29 21 -48 3 -19 8 -44 12 -56 6 -19 2 -22 -33
-28 -22 -3 -45 -13 -52 -21 -7 -8 -23 -15 -36 -15 -19 0 -24 5 -24 24 0 23 -4
24 -75 28 -90 4 -105 15 -71 51 22 24 29 26 74 20 60 -7 102 2 102 22 0 30 54
45 82 23z m1058 -128 c22 -45 45 -78 51 -75 5 4 23 36 40 73 27 61 43 81 62
82 15 0 6 -29 -38 -118 -38 -80 -48 -92 -70 -92 -21 0 -31 12 -70 90 -48 95
-54 120 -30 120 8 0 32 -34 55 -80z m-2053 13 c25 -6 29 -28 33 -180 2 -134 0
-139 -58 -148 -48 -8 -193 -7 -202 1 -2 3 -7 26 -10 52 l-5 47 -48 5 c-26 3
-47 10 -46 15 1 6 22 16 48 24 l46 14 -54 10 c-60 10 -53 27 10 27 37 0 56 19
38 37 -13 13 35 99 52 95 54 -13 106 -12 124 2 11 8 27 13 35 9 8 -3 25 -8 37
-10z m1787 3 c35 -15 47 -45 43 -111 -2 -29 -5 -30 -57 -37 -68 -9 -110 5
-110 37 0 30 23 48 73 54 61 9 57 35 -5 39 -50 3 -64 17 -25 25 40 8 47 7 81
-7z m-1281 -51 c-3 -8 -11 -15 -19 -15 -8 0 -14 -9 -14 -20 0 -11 -7 -23 -16
-27 -11 -4 -12 -8 -4 -13 8 -5 9 -13 4 -21 -15 -25 -13 -41 7 -46 27 -7 24
-19 -13 -53 -22 -19 -40 -27 -53 -24 -63 15 -102 29 -115 40 -8 7 -35 17 -58
23 -24 5 -45 11 -48 13 -9 9 28 48 46 48 40 0 36 54 -6 70 -13 5 -24 14 -24
19 0 15 120 17 153 3 17 -7 38 -9 46 -5 25 11 105 30 113 26 4 -2 5 -10 1 -18z
m5295 3 c7 -1 11 -8 10 -17 -2 -11 -16 -17 -46 -19 -47 -3 -57 -20 -50 -83 2
-26 -1 -34 -15 -37 -23 -5 -47 15 -47 40 0 10 -4 17 -8 14 -13 -8 -29 7 -37
33 -7 22 -5 24 24 18 42 -9 39 9 -4 23 -19 6 -35 15 -35 20 0 16 116 20 208 8z
m-7248 -82 c14 -2 29 -4 33 -4 4 -1 3 -11 -3 -23 -16 -28 -8 -33 63 -39 l62
-5 -3 -105 c-1 -58 0 -123 3 -145 5 -37 8 -40 37 -40 17 0 33 -5 35 -11 6 -17
-25 -26 -48 -14 -16 9 -19 7 -19 -9 0 -29 -33 -43 -93 -40 -53 2 -81 14 -71
30 12 21 -17 49 -51 49 -26 0 -35 4 -36 18 -4 52 2 336 7 344 4 6 18 7 33 3
14 -3 37 -8 51 -9z m1832 -182 c4 -3 8 -10 8 -16 0 -7 -17 -8 -48 -4 -56 7
-108 -7 -122 -34 -16 -30 -12 -76 9 -101 17 -21 28 -24 87 -24 68 -1 97 -17
52 -29 -45 -12 -102 -6 -145 15 -35 17 -45 28 -53 59 -19 72 11 121 85 139 38
9 108 6 127 -5z m1391 -1 c23 -13 -1 -21 -59 -20 -60 2 -68 0 -90 -26 -27 -31
-30 -54 -13 -91 16 -34 59 -50 119 -43 55 7 76 -7 35 -23 -69 -26 -163 -2
-189 49 -36 70 -1 142 77 159 38 9 100 6 120 -5z m4836 -32 c8 -6 12 -19 9
-36 -4 -18 -2 -25 7 -21 6 2 32 0 57 -5 32 -7 48 -16 51 -30 3 -10 1 -19 -5
-19 -5 0 -7 -9 -3 -19 7 -23 -21 -55 -42 -47 -8 3 -30 6 -49 6 -37 0 -58 25
-33 41 12 8 12 10 0 18 -8 5 -12 18 -8 30 4 16 0 21 -16 22 -27 1 -54 6 -73
13 -17 7 -19 42 -1 49 21 9 91 7 106 -2z m-6031 -34 c7 -6 18 -19 23 -29 17
-33 -6 -48 -72 -48 -33 0 -59 -4 -59 -8 0 -20 28 -32 72 -32 51 0 65 -15 22
-26 -35 -9 -93 2 -114 21 -43 39 -31 107 22 130 34 14 83 10 106 -8z m775 14
c28 -1 67 -47 67 -79 0 -47 -41 -77 -105 -77 -43 0 -59 5 -79 24 -30 28 -34
66 -11 99 16 22 67 41 95 36 8 -1 23 -3 33 -3z m638 -14 c24 -15 41 -55 33
-81 -17 -54 -75 -78 -145 -57 -43 13 -59 35 -59 79 0 65 103 101 171 59z m604
-14 c19 -24 19 -49 -1 -57 -9 -3 -37 -6 -63 -6 -53 0 -66 -7 -50 -27 7 -7 32
-13 60 -13 52 0 66 -15 23 -26 -74 -19 -152 30 -140 89 3 17 11 36 17 44 29
34 127 32 154 -4z m-229 3 c8 -11 14 -43 14 -73 0 -46 -3 -53 -20 -53 -17 0
-20 7 -20 53 0 60 -12 77 -52 77 -34 0 -48 -24 -48 -84 0 -34 -4 -46 -15 -46
-11 0 -15 12 -15 46 0 61 -14 84 -50 84 -36 0 -43 -12 -44 -74 -1 -40 -5 -51
-18 -54 -16 -3 -18 5 -18 66 0 38 3 71 6 75 4 3 65 6 136 5 118 -1 130 -3 144
-22z m-4199 -88 c4 -7 8 -24 8 -38 0 -24 3 -25 72 -28 70 -3 73 -2 103 29 16
18 33 29 37 25 4 -4 1 -11 -7 -16 -12 -7 -12 -12 -2 -22 22 -22 14 -45 -19
-52 -57 -11 -234 -7 -247 6 -13 13 -17 90 -5 101 11 12 51 8 60 -5z m8250
-186 c25 -34 16 -70 -26 -97 -48 -33 -81 -26 -118 22 -25 33 -26 37 -12 61 24
43 127 52 156 14z m1006 -121 c4 -1 7 -29 5 -63 l-3 -61 -90 -1 -90 -1 4 60
c2 33 7 62 12 65 7 5 121 5 162 1z m-6945 -53 c4 -34 -13 -39 -131 -43 -151
-4 -158 -5 -152 -15 8 -14 -14 -42 -27 -34 -5 3 -20 3 -34 0 -25 -7 -34 -42
-14 -62 7 -7 7 -21 -1 -42 -6 -18 -9 -42 -5 -55 8 -32 -5 -47 -48 -54 -26 -4
-47 0 -71 13 -28 15 -38 16 -59 6 -16 -7 -26 -20 -26 -32 0 -30 -65 -29 -73 1
-3 11 -15 23 -27 26 -11 3 -19 10 -17 17 5 16 64 26 137 24 46 -1 78 4 107 18
40 18 56 34 33 34 -5 0 -10 16 -10 35 0 24 6 37 21 45 28 15 21 52 -11 61 -32
9 -153 11 -174 3 -9 -3 -16 -16 -16 -28 0 -35 -20 -94 -37 -111 -12 -12 -30
-16 -67 -13 -42 2 -55 -1 -74 -20 -18 -18 -26 -20 -42 -12 -11 6 -20 17 -20
24 0 15 45 30 60 21 5 -3 14 3 19 14 6 10 24 24 41 29 17 7 30 18 30 28 0 13
-7 16 -33 11 -31 -5 -35 -2 -49 30 -14 29 -14 35 -2 40 9 3 12 13 8 27 -8 34
17 49 73 42 27 -3 53 -6 58 -6 6 -1 61 2 123 5 l113 6 -7 -27 c-5 -20 -3 -26
7 -22 8 2 18 14 24 26 8 19 19 22 97 24 49 2 130 1 181 -2 91 -5 92 -5 95 -32z
m521 19 c8 -10 7 -22 -1 -45 -7 -18 -16 -32 -19 -32 -15 0 25 -63 42 -67 26
-7 24 -18 -8 -33 -28 -12 -28 -12 -6 -22 30 -14 57 -3 50 22 -4 17 0 20 33 20
39 0 41 -4 31 -73 -1 -4 -10 -2 -21 5 -16 10 -23 9 -42 -9 -13 -11 -40 -24
-61 -27 l-38 -7 2 103 c1 57 -2 120 -6 141 -6 33 -5 37 13 37 11 0 25 -6 31
-13z m-667 -109 c-2 -13 4 -18 23 -18 22 0 38 -19 18 -21 -5 0 -18 -2 -30 -3
-33 -4 -35 -8 -40 -87 -5 -80 10 -109 56 -109 40 0 55 -14 47 -44 -5 -22 -11
-26 -27 -21 -11 4 -25 2 -32 -3 -7 -5 -26 -11 -43 -14 -28 -4 -31 -2 -25 16 5
13 0 32 -17 58 -28 41 -41 48 -43 21 -1 -10 -2 -27 -3 -38 -2 -27 -31 -30 -55
-6 -17 17 -19 25 -10 51 8 22 17 30 36 30 29 0 22 17 -13 30 -21 8 -24 16 -24
59 l0 50 62 3 c61 3 63 4 72 36 7 25 14 32 30 30 14 -2 20 -9 18 -20z m7129
-163 c22 -7 24 -39 5 -74 -7 -13 -11 -32 -9 -41 3 -10 -5 -27 -17 -38 -24 -22
-110 -46 -122 -34 -4 4 -1 43 7 87 8 44 14 85 15 91 0 12 91 18 121 9z m-6430
-35 c20 -6 29 -4 33 6 3 8 19 14 36 14 28 0 31 -3 28 -27 -3 -25 -7 -28 -35
-25 -32 3 -32 3 -30 -39 2 -40 -1 -44 -35 -62 l-37 -20 6 -57 c4 -40 2 -60 -7
-65 -20 -13 -27 12 -19 77 4 33 6 66 4 72 -2 6 -6 44 -9 84 -6 72 -6 73 15 61
12 -6 34 -15 50 -19z m-2157 -16 c12 -5 16 -21 16 -69 0 -82 -10 -90 -109 -90
-110 0 -111 1 -111 84 0 46 4 71 13 74 18 8 172 8 191 1z m3714 -216 l-3 -113
-66 -3 c-84 -4 -119 19 -119 78 0 53 35 80 101 80 36 0 49 4 50 15 1 8 3 20 4
25 1 6 3 15 4 20 0 6 8 10 16 10 13 0 15 -17 13 -112z m-1322 88 c17 -14 12
-15 -53 -13 -63 2 -74 -1 -97 -22 -35 -33 -35 -83 -1 -117 22 -22 33 -25 85
-23 62 3 85 -6 60 -21 -23 -15 -118 -12 -150 5 -76 39 -82 144 -12 188 35 21
140 23 168 3z m182 -63 c22 -19 37 -119 20 -129 -5 -3 -34 -8 -64 -10 -57 -4
-104 15 -104 41 0 23 39 47 85 52 25 3 45 9 45 13 0 19 -32 32 -65 27 -26 -4
-35 -2 -35 9 0 21 92 19 118 -3z m261 0 c11 -10 24 -32 27 -50 5 -27 1 -37
-24 -63 -26 -25 -38 -30 -81 -30 -50 0 -51 -1 -51 -29 0 -17 -4 -32 -9 -36
-18 -10 -29 29 -27 90 2 33 4 77 4 98 l2 37 69 0 c51 0 74 -5 90 -17z m513 0
c14 -12 18 -31 18 -77 l0 -61 -71 0 c-58 0 -73 3 -85 19 -17 24 -17 28 -1 50
9 12 31 20 65 24 29 2 52 8 52 12 0 17 -31 31 -61 28 -20 -2 -34 2 -36 10 -7
19 96 16 119 -5z m576 1 c16 -11 22 -24 20 -42 -3 -26 -6 -27 -65 -30 -45 -2
-63 -7 -63 -16 0 -18 23 -26 76 -26 44 0 58 -12 28 -24 -48 -18 -135 5 -148
39 -11 30 -6 62 15 89 17 21 29 26 68 26 26 0 56 -7 69 -16z m-4070 -46 c9 -9
12 -9 12 1 0 10 13 11 53 6 28 -4 57 -11 63 -16 6 -5 42 -7 80 -3 153 13 149
13 149 -26 0 -29 -4 -36 -24 -38 -13 -2 -38 -12 -56 -22 -29 -16 -34 -17 -48
-3 -9 10 -37 17 -70 18 -66 3 -77 9 -77 40 0 26 -15 41 -25 26 -3 -6 -12 -8
-19 -5 -8 3 -27 -11 -44 -31 -35 -44 -62 -43 -74 0 -12 46 -2 65 36 65 17 0
37 -5 44 -12z m1050 -89 c2 -19 -4 -31 -22 -43 -17 -11 -26 -26 -26 -42 0 -23
-3 -25 -22 -19 -13 5 -41 9 -63 11 -22 1 -46 2 -52 3 -22 2 -14 31 12 43 22
10 24 16 19 45 l-6 34 78 -3 c77 -3 79 -4 82 -29z m1250 -6 c5 -16 10 -46 11
-68 0 -22 5 -83 9 -135 5 -52 6 -99 1 -104 -4 -5 -26 -9 -48 -10 -23 0 -41 -4
-41 -9 0 -4 -11 -5 -24 -1 -27 6 -39 -5 -26 -26 6 -9 23 -13 49 -12 32 2 43
-2 55 -20 19 -30 19 -103 0 -119 -18 -15 -19 -13 -30 35 -9 38 -10 39 -59 41
-65 3 -62 2 -68 25 -4 17 -14 20 -64 22 -32 0 -68 0 -80 -1 -31 -2 -40 23 -35
102 l4 67 99 -1 c105 -1 119 -7 119 -57 0 -13 7 -20 23 -20 12 0 29 -1 37 -3
12 -3 15 7 15 46 0 48 -1 50 -35 62 -22 8 -28 12 -15 12 11 1 31 8 43 17 20
13 22 24 22 93 0 43 3 81 7 84 12 13 21 7 31 -20z m-1573 -23 c10 -12 25 -18
32 -16 7 3 16 -2 21 -11 6 -11 11 -12 16 -4 9 14 36 14 36 0 0 -6 -6 -9 -12
-6 -7 2 -18 -5 -24 -15 -10 -18 -12 -19 -27 -4 -10 10 -18 12 -22 6 -8 -13 4
-32 15 -25 5 3 12 -7 16 -22 3 -15 7 -33 9 -40 8 -26 -116 -44 -156 -22 -18 9
-19 19 -17 87 l3 77 35 6 c19 4 40 7 46 8 6 0 19 -8 29 -19z m2519 -202 c3
-18 7 -59 10 -90 l5 -58 -29 0 c-16 0 -32 5 -36 11 -3 6 -22 18 -41 25 -26 11
-32 18 -24 28 6 7 8 29 4 49 -8 50 9 67 63 67 41 0 43 -2 48 -32z m5770 -349
c32 -25 34 -66 5 -103 -17 -22 -28 -26 -70 -26 -40 0 -55 5 -74 25 -55 54 -15
125 70 125 28 0 51 -7 69 -21z m-1606 -147 c21 -4 32 -32 12 -32 -5 0 -10 -8
-10 -17 0 -13 -6 -11 -28 10 -36 35 -72 36 -72 3 0 -40 -21 -48 -132 -48 -145
1 -223 -9 -223 -28 0 -18 -21 -33 -35 -25 -6 3 -10 28 -10 55 0 38 -5 52 -21
64 l-21 14 23 5 c28 6 483 5 517 -1z m-1053 -19 c8 -8 15 -32 15 -53 0 -33 -3
-38 -27 -43 -32 -6 -93 2 -110 15 -6 5 -23 6 -37 2 -37 -9 -73 17 -74 53 0 15
2 31 5 35 2 5 51 7 109 7 77 -1 109 -5 119 -16z m-1326 -102 c12 -12 18 -33
19 -65 0 -25 1 -48 1 -51 2 -12 -2 -20 -8 -18 -16 4 -6 -33 13 -48 18 -15 19
-20 7 -42 -7 -14 -25 -27 -40 -30 -14 -2 -33 -6 -41 -8 -13 -3 -15 18 -18 139
l-3 142 25 0 c14 0 34 -8 45 -19z m2961 -6 c8 -6 23 -15 33 -18 9 -4 24 -23
33 -44 9 -21 21 -48 27 -60 8 -18 6 -27 -8 -43 -22 -24 -13 -50 18 -50 27 0
47 -17 47 -41 0 -25 -14 -31 -45 -19 -33 13 -70 -4 -60 -27 3 -9 0 -20 -7 -24
-15 -10 -48 7 -48 25 0 8 -13 25 -29 38 -22 19 -36 23 -67 20 -21 -3 -32 -7
-24 -10 8 -3 17 -8 20 -11 3 -3 26 -22 52 -41 26 -19 48 -38 48 -42 0 -14
-104 -8 -130 7 -33 19 -79 19 -101 -1 -20 -18 -94 -31 -102 -17 -14 22 -14 63
-2 80 8 10 15 35 15 56 0 28 4 37 18 37 16 1 16 1 0 14 -12 8 -20 37 -26 87
-5 41 -7 78 -5 82 3 4 17 7 31 6 15 -2 44 1 65 5 44 10 53 5 38 -22 -8 -14 -8
-21 0 -24 13 -4 28 -71 29 -129 0 -48 21 -72 44 -49 5 5 24 10 41 10 17 0 36
5 43 12 16 16 15 47 -1 54 -7 2 -13 20 -13 40 0 19 -6 39 -14 44 -10 6 -5 13
19 28 31 19 32 20 12 27 -12 3 -21 11 -21 16 0 12 50 1 70 -16z m-7073 -39
c10 -10 -3 -17 -39 -23 -18 -3 -34 -6 -35 -7 -1 -1 -5 -20 -9 -42 -6 -38 -4
-43 25 -63 28 -21 36 -22 79 -11 80 19 77 21 79 -40 3 -74 -1 -84 -27 -68 -16
10 -22 10 -32 0 -11 -11 -10 -16 5 -27 11 -7 26 -11 35 -8 12 5 14 1 10 -15
-3 -11 -1 -23 6 -25 8 -3 8 -10 -2 -26 -9 -16 -10 -27 -1 -42 20 -39 5 -49
-71 -49 -77 0 -77 0 -83 -65 -4 -35 -8 -40 -31 -43 -20 -3 -28 2 -36 22 -9 24
-15 275 -12 460 l2 89 66 -6 c36 -2 68 -8 71 -11z m2943 -54 c0 -10 -5 -23
-11 -29 -7 -7 -8 -17 -2 -28 6 -10 7 -35 2 -59 -4 -22 -4 -45 1 -51 5 -5 6
-30 4 -55 -2 -25 -4 -52 -3 -60 0 -8 0 -66 0 -127 0 -62 5 -115 10 -119 5 -3
7 -9 4 -14 -9 -15 -18 -82 -17 -122 2 -42 -11 -48 -44 -23 -23 18 -71 19 -77
3 -3 -10 -7 -10 -19 0 -12 10 -15 28 -12 80 6 99 5 373 -1 393 -3 10 -18 19
-33 21 -24 3 -27 7 -25 38 4 56 4 73 -3 112 -5 33 -4 37 18 40 12 2 39 -4 59
-14 40 -19 86 -13 115 16 21 21 34 20 34 -2z m-3703 -102 c29 -26 31 -32 22
-58 -8 -24 -14 -28 -36 -24 -18 3 -24 1 -19 -7 6 -9 -11 -10 -71 -5 -82 7 -98
16 -82 46 7 14 22 18 62 18 29 0 59 6 66 13 11 10 13 10 7 0 -5 -8 -1 -13 10
-13 13 0 14 3 4 15 -7 8 -19 15 -26 15 -17 0 -18 17 -1 23 23 10 32 6 64 -23z
m6051 13 c12 -3 25 -9 28 -14 3 -5 18 -9 34 -9 29 0 48 -24 27 -37 -6 -4 -27
-6 -46 -4 -30 2 -33 0 -21 -14 8 -9 21 -14 31 -12 13 4 19 -3 23 -28 8 -40 0
-62 -25 -68 -11 -3 -19 -14 -19 -25 0 -23 -18 -32 -65 -32 l-32 0 -8 81 c-5
59 -3 84 5 89 8 5 10 19 5 39 -8 37 1 55 24 45 9 -3 26 -9 39 -11z m2858 -79
c-4 -9 3 -18 18 -24 28 -10 36 -36 31 -102 -3 -44 0 -51 17 -56 17 -4 19 -10
14 -44 -4 -22 -14 -54 -22 -70 -11 -22 -14 -45 -10 -82 4 -28 7 -64 9 -81 1
-16 10 -36 20 -43 20 -16 17 -51 -11 -109 -12 -25 -22 -33 -43 -33 -14 0 -31
6 -36 13 -13 17 -16 89 -4 120 7 18 7 27 -2 30 -9 3 -9 12 0 38 13 39 4 181
-15 215 -6 11 -9 30 -6 41 7 24 -19 53 -47 53 -10 0 -19 5 -19 10 0 6 -8 10
-18 10 -16 0 -18 -8 -18 -57 l1 -58 -65 0 c-58 0 -66 2 -75 22 -6 15 -15 21
-27 17 -9 -3 -28 2 -42 11 -16 11 -26 13 -31 5 -3 -6 -12 -7 -18 -3 -6 4 -47
8 -90 10 -43 1 -83 5 -88 8 -14 9 -10 67 6 95 8 14 14 35 15 48 0 17 6 22 28
22 36 -1 59 -20 68 -56 10 -43 16 -50 25 -26 7 18 15 20 61 19 48 -2 53 -4 57
-27 l4 -25 7 25 c5 22 12 25 47 25 23 0 45 3 49 8 16 15 52 6 68 -18 19 -29
83 -38 72 -10 -3 8 -1 15 5 15 6 0 7 6 1 17 -9 15 -1 36 35 96 8 14 35 -33 29
-49z m-2169 -42 c8 -29 9 -51 3 -68 -9 -21 -15 -24 -65 -24 -61 0 -62 1 -68
72 -6 59 5 70 68 66 49 -3 49 -3 62 -46z m-3906 -13 c9 -154 -10 -682 -24
-691 -8 -4 -5 -14 7 -27 10 -11 16 -27 13 -36 -5 -13 -25 -14 -128 -10 -90 3
-127 9 -139 20 -11 10 -38 15 -83 15 -64 0 -77 3 -163 41 l-42 18 5 323 c2
178 6 329 9 336 3 9 23 13 66 11 35 0 73 3 85 7 12 5 106 11 208 13 l185 3 1
-23z m627 7 c10 -6 6 -461 -4 -536 -4 -30 -7 -75 -5 -100 3 -66 -21 -116 -60
-124 -41 -8 -402 -8 -453 1 l-39 6 8 106 c4 58 8 226 10 373 2 147 6 271 9
276 5 8 520 7 534 -2z m-3646 -20 c11 -11 16 -11 35 1 21 14 23 14 31 -8 7
-19 10 -20 15 -6 10 25 34 20 41 -8 8 -33 61 -36 69 -5 9 36 97 22 97 -15 0
-41 -23 -49 -98 -36 -37 7 -75 9 -84 6 -9 -4 -19 -2 -22 4 -5 7 -13 7 -26 -1
-14 -9 -22 -9 -33 1 -9 7 -18 8 -21 2 -9 -14 -109 -11 -130 5 -14 9 -16 20
-11 43 6 30 8 31 65 31 37 0 64 -5 72 -14z m2073 -176 c-5 -15 -10 -19 -17
-12 -21 21 -38 1 -38 -45 l0 -45 38 8 c20 5 90 8 155 7 109 -1 117 0 117 18 0
10 5 19 11 19 6 0 9 8 7 18 -5 26 -33 21 -31 -5 2 -14 -3 -23 -11 -23 -42 0
-43 75 -1 86 13 3 36 0 52 -8 26 -13 28 -17 27 -74 -1 -95 -3 -98 -77 -89 -34
3 -125 10 -202 13 l-140 7 0 80 0 80 45 5 c53 7 75 -7 65 -40z m4908 30 c4 0
7 -12 7 -28 0 -15 7 -38 16 -50 25 -37 12 -52 -43 -48 l-48 2 -3 40 c-4 58 -9
69 -27 54 -19 -15 -189 -10 -206 7 -25 25 4 30 148 27 81 -2 151 -4 156 -4z
m466 -4 c12 -14 8 -52 -9 -91 -5 -11 -10 -29 -12 -40 -3 -18 -12 -20 -106 -23
-71 -2 -116 2 -146 12 -24 8 -59 13 -77 10 -36 -6 -77 15 -66 33 4 6 52 14
108 18 l100 7 -1 32 c-3 58 -7 56 99 56 72 0 102 -4 110 -14z m-2786 -15 c11
-4 37 -3 59 3 29 8 44 7 58 -2 11 -7 27 -12 35 -12 8 0 15 -9 15 -20 0 -25 16
-26 29 -3 8 16 11 15 30 -7 11 -14 20 -35 21 -47 0 -13 11 -29 29 -39 60 -35
62 -152 4 -155 l-28 -2 28 -4 c26 -4 40 -33 15 -33 -18 0 -48 -31 -48 -50 0
-9 11 -26 25 -38 14 -12 25 -31 25 -41 0 -30 22 -37 38 -13 20 31 106 32 122
1 20 -37 -5 -52 -77 -46 l-63 5 0 -29 c0 -39 -20 -46 -119 -45 -99 1 -112 11
-96 73 6 22 8 88 4 158 -8 151 -2 206 23 213 10 2 18 8 18 13 0 5 7 9 15 9 21
0 18 20 -5 49 -18 21 -23 22 -50 11 -16 -7 -45 -12 -65 -12 -31 0 -36 -3 -32
-19 3 -10 1 -19 -4 -19 -5 0 -9 -9 -9 -19 0 -29 -17 -35 -87 -33 l-62 3 -26
-40 c-40 -64 -109 -69 -85 -6 13 33 2 45 -44 45 -16 0 -37 7 -47 16 -9 8 -41
17 -70 19 -29 2 -56 10 -61 17 -4 7 -7 33 -6 58 l3 45 70 5 c93 7 393 0 418
-9z m3414 11 c13 -8 24 -87 16 -109 -9 -22 -72 -27 -93 -8 -11 10 -20 24 -20
31 0 7 -8 17 -17 23 -14 7 -15 12 -5 24 7 8 10 22 6 31 -5 14 2 16 47 16 30 0
60 -4 66 -8z m-9027 -78 c14 -35 12 -88 -2 -102 -19 -19 -68 -15 -74 6 -14 46
-31 67 -59 72 -19 3 -31 12 -33 24 -4 17 1 18 46 12 31 -4 53 -3 57 4 13 21
55 11 65 -16z m7973 -79 c17 -7 18 -18 14 -119 -3 -69 -10 -124 -20 -146 -9
-19 -18 -43 -21 -53 -5 -14 -14 -18 -43 -15 l-38 3 0 65 0 65 -37 3 c-45 4
-55 20 -52 82 1 25 2 60 3 78 1 24 7 35 24 41 25 10 143 7 170 -4z m-5313
-112 c0 -10 3 -48 6 -84 6 -64 5 -68 -19 -84 -30 -20 -93 -12 -106 14 -12 23
-3 154 12 163 6 4 33 8 60 8 38 0 47 -3 47 -17z m-1932 -22 c11 -1 12 -17 8
-73 -3 -40 -7 -96 -8 -125 -2 -29 -8 -57 -13 -62 -6 -6 -36 -13 -67 -17 -49
-6 -61 -4 -88 16 -30 21 -31 24 -28 88 l3 67 52 0 c46 0 53 3 58 23 3 13 3 27
0 32 -3 4 -1 20 4 34 8 20 16 24 38 21 15 -2 34 -4 41 -4z m-654 -70 c27 -10
44 -60 34 -98 -8 -29 -11 -31 -61 -35 -30 -3 -57 0 -64 6 -19 17 -28 103 -13
121 13 16 71 19 104 6z m4754 -13 c7 -7 12 -43 12 -93 0 -69 -3 -85 -20 -100
-15 -13 -23 -15 -33 -7 -38 32 -137 22 -137 -13 0 -34 -19 -12 -25 29 -12 79
-2 97 71 131 36 17 70 38 75 48 11 20 40 22 57 5z m-1319 -208 c18 -5 40 -19
48 -30 17 -23 51 -27 59 -5 4 8 12 15 19 15 7 0 15 -7 19 -15 3 -8 12 -15 21
-15 21 0 19 -13 -6 -28 -29 -18 -23 -83 9 -97 28 -12 29 -25 1 -25 -42 0 -59
18 -59 64 0 62 -21 77 -63 45 -20 -14 -51 -26 -82 -29 -48 -5 -50 -6 -55 -40
-3 -22 -10 -35 -20 -35 -12 0 -15 17 -15 95 0 92 1 94 25 101 37 10 61 10 99
-1z m-877 -17 c8 -10 33 -53 56 -95 29 -53 38 -79 30 -84 -6 -4 -20 4 -33 19
-18 24 -28 27 -77 27 -49 0 -59 -3 -76 -27 -11 -15 -24 -23 -31 -19 -7 5 3 34
35 94 56 106 68 117 96 85z m5965 -3 c45 -24 79 -26 87 -5 10 28 76 15 76 -15
0 -21 -19 -30 -66 -30 -23 0 -34 -5 -34 -15 0 -8 -6 -12 -12 -10 -7 3 -17 1
-23 -3 -15 -10 -35 -49 -35 -67 0 -10 -10 -15 -35 -15 -28 0 -37 5 -49 29 -9
16 -27 32 -41 35 -32 8 -32 24 0 32 16 4 27 16 31 33 14 56 40 64 101 31z
m-7133 -14 c42 -17 51 -44 32 -90 -17 -40 -46 -52 -104 -42 -44 7 -62 28 -62
72 0 23 8 39 26 53 31 25 62 26 108 7z m2412 -41 c14 -14 24 -31 21 -38 -2 -7
-28 -14 -60 -17 -65 -6 -80 -16 -52 -37 13 -9 33 -13 58 -10 26 4 37 2 34 -6
-2 -7 -24 -13 -48 -15 -60 -4 -99 25 -99 73 0 69 95 101 146 50z m-3578 -175
l3 -35 -278 2 c-153 1 -288 5 -300 8 -22 5 -32 42 -16 58 4 4 137 6 297 5
l291 -3 3 -35z m4047 21 l30 -7 -24 -8 c-14 -5 -33 -18 -42 -30 -13 -16 -33
-22 -86 -27 l-68 -6 95 -3 c196 -6 193 -7 198 12 3 13 14 18 38 18 27 0 34 4
34 20 0 11 7 20 15 20 17 0 20 -16 6 -25 -5 -3 -12 -19 -16 -35 -6 -26 -11
-30 -41 -30 -54 0 -41 -44 16 -52 39 -5 34 -42 -6 -46 -37 -4 -44 -19 -44
-102 0 -30 -4 -60 -8 -67 -8 -13 -102 -21 -120 -10 -6 5 -9 26 -7 52 4 37 1
46 -16 56 -12 6 -35 8 -53 4 -53 -11 -129 -13 -174 -5 -60 11 -81 3 -90 -34
-7 -25 -14 -32 -38 -34 -24 -2 -32 -9 -40 -35 -8 -29 -14 -33 -58 -39 -79 -11
-80 -10 -77 143 1 74 5 137 9 140 4 4 51 9 104 11 110 6 108 7 108 -72 0 -41
3 -49 22 -53 32 -9 47 19 48 85 0 34 5 62 14 70 11 12 -10 13 -133 12 -80 0
-163 -2 -183 -2 l-37 -2 5 -107 c3 -60 6 -160 8 -223 1 -64 5 -121 9 -127 14
-23 -31 -54 -71 -51 l-37 3 -1 80 c-1 44 -3 154 -5 245 l-4 165 25 3 c46 6 52
10 40 32 -8 16 -6 24 11 41 18 18 29 20 83 16 33 -4 81 -2 106 2 54 10 413 11
455 2z m-1065 -91 c0 -31 1 -34 13 -48 6 -8 21 -12 34 -9 24 4 24 3 17 -52 -3
-31 -8 -57 -9 -59 -1 -1 -25 -5 -53 -9 -48 -5 -52 -4 -63 20 -8 19 -9 34 -1
57 6 17 9 44 5 60 -8 41 2 60 32 60 18 0 25 -5 25 -20z m6068 -42 c11 -24 17
-27 48 -22 43 7 101 -11 114 -36 9 -17 5 -18 -70 -14 l-80 4 0 -44 c0 -35 -5
-48 -22 -60 -27 -19 -84 -21 -91 -3 -3 9 -1 185 2 205 1 2 20 2 43 0 35 -2 45
-8 56 -30z m-8550 -44 c13 -4 16 -62 6 -101 -6 -23 -17 -26 -111 -37 l-43 -4
0 74 c0 43 4 74 10 74 6 0 10 -5 10 -11 0 -6 7 -3 16 5 14 15 65 15 112 0z
m7007 -147 l36 -25 -48 -6 c-74 -11 -83 -15 -83 -40 0 -35 -19 -44 -80 -37
-47 5 -55 9 -61 31 -6 23 -3 67 7 99 4 11 23 13 99 8 77 -4 100 -10 130 -30z
m-11 -112 c7 -35 7 -35 58 -35 39 0 57 -5 75 -22 32 -30 31 -81 -2 -114 -22
-22 -32 -25 -92 -22 l-68 3 -5 35 c-9 64 0 190 15 190 7 0 16 -16 19 -35z
m-3640 19 c36 -14 12 -24 -54 -24 -57 0 -74 -4 -90 -20 -28 -28 -27 -93 2
-120 24 -22 38 -25 113 -21 44 3 48 2 36 -13 -18 -21 -121 -22 -161 -1 -76 39
-78 137 -4 186 29 19 122 27 158 13z m604 -10 c24 -16 29 -53 10 -72 -9 -9 -7
-17 10 -35 29 -31 28 -51 -4 -76 -22 -17 -41 -21 -105 -21 l-79 0 0 110 0 110
73 0 c49 0 80 -5 95 -16z m1868 1 c17 -13 13 -14 -51 -15 -81 0 -110 -15 -120
-59 -15 -69 46 -116 135 -104 24 3 40 2 40 -5 0 -31 -124 -31 -171 1 -65 43
-65 131 0 174 41 28 135 32 167 8z m242 3 c-3 -8 -30 -15 -69 -18 -63 -5 -64
-5 -64 -35 0 -28 2 -30 45 -33 62 -4 77 -22 18 -22 -52 0 -65 -11 -70 -60 -2
-23 -8 -35 -18 -35 -12 0 -16 18 -18 94 -1 52 -1 100 2 108 7 18 180 19 174 1z
m325 1 c29 -16 37 -28 37 -61 0 -35 -29 -54 -97 -63 -51 -7 -52 -7 -58 -46 -5
-30 -11 -39 -23 -37 -14 3 -18 19 -20 88 -4 129 -4 130 74 130 36 0 75 -5 87
-11z m-2213 -69 c17 -17 20 -31 18 -77 l-3 -56 -60 -3 c-73 -4 -94 1 -105 29
-12 32 15 56 71 63 31 4 49 11 49 20 0 14 -35 27 -61 24 -27 -4 -40 0 -34 10
3 6 28 10 56 10 36 0 54 -5 69 -20z m458 4 c20 -14 23 -23 20 -76 l-3 -61 -66
-4 c-55 -3 -69 0 -83 16 -26 29 -12 58 32 71 20 5 45 10 54 10 9 0 19 4 23 9
8 14 -28 31 -64 31 -17 0 -31 5 -31 10 0 16 93 12 118 -6z m377 -1 c30 -29 33
-138 5 -138 -11 0 -16 15 -20 51 -6 58 -23 84 -54 84 -35 0 -46 -20 -46 -83 0
-50 -2 -58 -17 -55 -15 3 -19 16 -21 66 -3 57 -5 62 -29 68 -41 11 -58 -7 -61
-62 -4 -68 -8 -79 -27 -64 -15 13 -22 129 -9 143 4 3 65 6 136 5 96 -1 133 -5
143 -15z m216 6 c25 -13 40 -50 27 -66 -6 -8 -33 -13 -64 -13 -29 0 -55 -4
-58 -8 -11 -19 15 -36 56 -37 24 -1 45 -5 48 -11 6 -11 -63 -18 -97 -9 -98 24
-75 155 27 155 23 0 50 -5 61 -11z m1647 -7 c16 -13 23 -26 20 -43 -3 -22 -8
-24 -65 -27 -46 -2 -63 -7 -63 -17 0 -21 38 -38 69 -32 33 7 62 -7 36 -17 -9
-3 -36 -6 -59 -6 -61 0 -96 29 -96 80 0 30 6 43 26 59 34 26 100 28 132 3z
m556 -1 c13 -14 16 -33 14 -76 l-3 -58 -63 -3 c-52 -3 -66 0 -82 16 -11 11
-20 24 -20 29 0 19 32 40 68 46 64 11 70 14 48 31 -11 8 -35 14 -53 14 -18 0
-33 5 -33 10 0 6 24 10 53 10 40 0 58 -5 71 -19z m-3466 -203 c5 -40 -23 -49
-131 -46 -92 3 -92 3 -95 30 -4 33 7 36 118 41 106 4 105 5 108 -25z"/>
<path d="M3948 5943 c-19 -5 -32 -40 -26 -70 3 -15 15 -18 90 -21 85 -3 88 -2
94 22 3 13 4 35 2 47 -3 22 -8 24 -73 26 -38 0 -78 -1 -87 -4z"/>
<path d="M5700 5003 c0 -5 0 -156 0 -338 1 -366 1 -342 -1 -515 l-1 -125 31
-9 c40 -12 40 -24 -1 -28 -32 -3 -32 -4 -32 -53 l0 -50 37 -3 c43 -4 49 -19
10 -28 -16 -3 -33 -7 -38 -9 -7 -2 -9 -123 -5 -366 2 -200 3 -411 2 -469 -4
-184 -3 -642 1 -646 4 -4 445 -5 1524 -4 l322 0 -3 95 c-4 100 -8 117 -28 97
-23 -23 -88 -9 -88 19 0 7 80 49 93 49 4 0 7 -8 8 -17 0 -11 4 -8 9 8 9 30 10
284 1 296 -3 5 -25 24 -49 42 -49 38 -86 91 -96 138 -14 64 42 151 129 199 14
8 22 25 25 57 3 26 12 53 18 59 10 10 126 14 499 16 433 3 488 5 498 19 10 13
23 15 81 9 38 -5 84 -9 102 -10 18 -2 35 -6 39 -10 3 -3 40 -6 81 -6 l74 0 -6
38 c-6 41 -25 329 -25 404 l-1 48 -43 -6 c-38 -6 -44 -4 -57 20 -10 20 -11 29
-2 38 35 35 -10 72 -53 44 -33 -22 -35 -21 -35 14 l0 31 91 -7 90 -7 -3 39
c-3 38 -4 39 -43 38 -116 -2 -127 -4 -132 -23 -5 -21 -80 -38 -96 -22 -6 6
-21 5 -41 -3 -98 -41 -126 -37 -126 18 l0 33 -160 1 c-142 2 -188 -5 -146 -21
8 -3 17 -35 23 -84 6 -43 12 -82 13 -88 1 -5 2 -47 1 -92 -1 -96 -2 -97 -119
-95 -84 1 -112 8 -112 28 0 20 -17 17 -23 -5 -5 -20 -53 -33 -102 -25 -28 4
-166 5 -210 2 -11 -1 -40 2 -65 7 -51 10 -221 12 -325 5 l-70 -5 2 -68 c0 -38
4 -71 8 -75 4 -4 94 -8 201 -10 167 -3 196 -5 201 -19 4 -9 -1 -21 -12 -29
-18 -13 -18 -14 4 -14 19 0 22 -5 19 -32 l-3 -33 -65 5 c-36 3 -116 4 -179 4
-106 -1 -115 -3 -131 -24 -14 -19 -29 -23 -88 -28 l-72 -5 0 -34 c0 -19 -5
-44 -12 -56 -6 -12 -12 -51 -12 -87 l-1 -65 -50 0 -50 0 0 80 c0 44 -4 86 -8
93 -5 6 -5 12 0 12 4 0 6 21 4 47 -2 36 1 50 14 59 16 12 15 14 -9 20 -51 12
-54 5 -50 -108 2 -57 4 -107 4 -113 -3 -152 -1 -148 -92 -166 -46 -9 -59 -8
-96 9 -42 19 -45 19 -91 1 -37 -14 -64 -16 -123 -12 -46 3 -88 1 -111 -6 -30
-10 -44 -9 -86 6 -47 16 -53 16 -101 1 l-51 -16 -35 30 c-38 34 -84 47 -161
48 -43 0 -53 3 -55 18 -13 156 -1 270 36 327 19 30 27 34 89 40 74 8 122 -5
131 -33 3 -10 3 4 1 30 -4 44 -3 48 21 54 34 9 176 -4 189 -17 13 -13 -7 -25
-57 -33 -25 -4 -38 -11 -35 -19 2 -6 11 -10 18 -8 8 2 60 3 116 3 103 -1 131
7 92 28 -20 11 -20 13 -5 28 13 13 35 16 118 14 56 -2 115 0 130 3 27 6 28 9
28 72 0 58 3 69 26 89 14 13 29 24 34 24 5 0 14 9 20 20 9 17 20 19 130 17 89
-1 120 1 120 10 0 16 -25 21 -122 26 -43 2 -84 9 -92 16 -18 15 -43 4 -94 -40
-18 -16 -39 -29 -46 -29 -7 0 -21 -9 -31 -20 -17 -19 -30 -20 -329 -19 -171 1
-351 4 -401 8 -81 5 -90 8 -90 26 0 19 8 20 166 23 121 2 170 6 178 15 7 9 8
57 3 148 l-7 134 -55 0 -55 0 -6 -38 c-8 -49 -11 -51 -54 -37 -19 6 -56 10
-82 8 -33 -2 -48 1 -53 12 -4 8 -15 32 -26 53 -32 68 -23 72 170 75 l166 2 1
33 c2 43 0 95 -6 133 -5 31 -17 40 -95 73 -21 9 -17 10 30 8 41 -1 55 -6 56
-17 1 -42 38 -68 50 -36 11 29 104 42 104 16 0 -14 -31 -40 -47 -40 -10 0 -13
-5 -8 -17 18 -45 15 -64 -12 -90 -19 -17 -24 -27 -15 -30 13 -5 84 -106 95
-135 6 -18 57 -26 57 -10 0 4 -13 23 -28 42 -43 52 -53 75 -55 128 -2 39 3 54
28 86 38 50 91 83 167 102 51 13 71 14 122 4 62 -12 127 -40 160 -69 27 -24
56 -86 56 -121 0 -30 -35 -115 -51 -126 -5 -3 -9 -12 -9 -20 0 -21 38 -17 44
4 4 11 17 25 31 32 18 9 26 24 31 55 9 65 -1 146 -21 157 -15 9 -15 11 1 22
15 12 14 15 -16 29 -18 10 -38 17 -45 17 -18 0 -95 40 -95 49 0 5 -44 12 -98
15 -54 4 -104 11 -112 16 -9 5 -19 5 -27 -2 -7 -6 -27 -7 -45 -4 -18 4 -41 7
-50 7 -19 0 -20 3 -23 59 -2 19 -3 40 -4 47 0 6 -18 13 -38 15 -38 3 -38 3
-43 54 -8 82 -1 98 50 107 95 18 170 19 203 4 26 -13 44 -14 97 -6 134 21 179
22 206 4 21 -13 40 -15 97 -11 40 3 184 9 321 12 232 5 251 5 263 -12 9 -13
13 -61 13 -173 0 -195 -2 -201 -43 -191 -61 16 -137 22 -137 12 0 -6 5 -14 10
-17 6 -4 8 -10 5 -14 -6 -10 -106 7 -120 20 -12 11 -125 12 -144 0 -21 -13
-30 -257 -11 -290 7 -13 10 -9 11 19 2 19 3 42 5 50 1 8 2 47 3 86 l1 71 126
6 c101 5 132 10 160 26 19 11 40 19 47 17 6 -3 24 -7 40 -10 15 -4 27 -13 27
-21 0 -8 6 -15 13 -16 6 0 25 -2 42 -2 27 -2 30 -6 42 -57 7 -30 10 -63 7 -73
-4 -11 3 -28 16 -42 27 -28 10 -37 -40 -21 -26 8 -36 19 -42 43 -5 18 -13 35
-20 39 -6 4 -8 3 -4 -4 9 -14 -13 -63 -37 -83 -12 -10 -18 -23 -14 -32 5 -13
30 -16 161 -16 152 -1 194 8 152 31 -13 7 -16 26 -16 93 l0 85 -32 -5 -33 -5
27 12 c34 15 42 58 32 183 -4 50 -8 119 -9 155 -3 63 -4 65 -31 70 -26 5 -29
9 -29 45 0 39 1 40 37 43 l36 3 4 76 c2 41 1 78 -2 82 -5 6 -56 27 -94 38 -12
4 -24 -1 -32 -12 -12 -17 -15 -17 -38 -1 -31 20 -165 23 -184 4 -10 -10 -17
-10 -32 0 -27 16 -101 15 -124 -3 -25 -19 -85 -19 -110 0 -28 21 -134 20 -157
-1 -16 -15 -20 -15 -41 0 -28 20 -57 21 -65 1 -5 -14 -8 -14 -29 0 -31 20
-108 20 -125 -1 -11 -14 -13 -14 -21 0 -8 14 -71 16 -528 16 -286 0 -520 -3
-520 -7z m429 -624 c20 -7 33 -20 37 -36 8 -32 9 -101 2 -109 -15 -14 -122
-14 -145 1 -49 33 -12 85 60 85 31 0 38 3 35 18 -2 12 -15 18 -46 20 -43 3
-56 17 -24 25 30 8 48 7 81 -4z m-94 -371 c30 -13 37 -37 33 -102 l-3 -48 -59
-4 c-66 -4 -106 13 -106 46 0 26 37 50 77 50 35 0 53 17 32 31 -8 5 -32 9 -54
9 -37 1 -39 2 -21 15 24 18 66 19 101 3z m19 -909 c33 -26 33 -53 1 -83 -14
-13 -25 -28 -25 -34 0 -6 11 -19 25 -30 14 -11 25 -25 25 -31 0 -22 -30 -10
-76 30 -56 48 -76 47 -85 -4 -7 -46 -14 -53 -34 -37 -11 9 -15 33 -15 95 0
117 -1 115 85 115 58 0 77 -4 99 -21z m247 -58 c35 -28 32 -86 -6 -118 -25
-22 -36 -25 -82 -21 -66 6 -93 28 -93 76 0 57 31 82 101 82 41 0 63 -5 80 -19z
m413 0 c13 -14 16 -33 14 -76 l-3 -56 -60 -4 c-66 -4 -105 12 -105 44 0 27 24
43 75 49 28 3 45 10 45 18 0 16 -34 27 -60 19 -23 -7 -43 2 -35 16 4 5 30 9
59 9 39 0 57 -5 70 -19z m501 13 c18 -7 45 -55 45 -79 0 -9 -13 -30 -29 -46
-24 -23 -38 -29 -73 -29 -96 0 -145 75 -87 132 23 23 36 28 77 28 28 0 58 -3
67 -6z m-388 -221 c21 -5 22 -10 22 -108 l0 -104 -401 0 c-264 0 -408 3 -421
10 -18 10 -19 18 -12 102 4 51 9 95 12 100 5 8 765 9 800 0z"/>
<path d="M6125 2760 c-11 -18 5 -50 28 -55 12 -3 144 -4 292 -3 l270 3 3 24
c2 13 -2 28 -10 32 -19 13 -575 11 -583 -1z"/>
<path d="M7164 4750 c-43 -19 -75 -72 -53 -86 6 -3 9 -22 7 -42 -2 -21 2 -37
9 -39 8 -3 13 14 15 54 l3 58 123 5 c69 3 123 9 125 15 2 10 -133 54 -168 54
-11 0 -39 -9 -61 -19z"/>
<path d="M4516 7658 c-4 -20 -1 -37 8 -47 7 -9 17 -38 21 -66 10 -74 15 -77
103 -59 29 6 30 46 2 65 -20 14 -28 41 -29 107 -1 28 -4 32 -29 32 -22 0 -28
-4 -27 -22 0 -32 -19 -34 -23 -3 -5 35 -18 31 -26 -7z"/>
</g>
</svg>
